<svg xmlns="http://www.w3.org/2000/svg" viewBox="0 0 320 105.1">
  <title>Solidus Logo</title>
  <path d="M101.27,50.5l-8-1.51c-3.08-.51-4.83-1.68-4.83-3.89,0-3,3.39-4.67,6.81-4.67,2.61,0,6.07.81,10,4.12l4.55-5.6c-5.06-3.62-9.57-5.14-14.7-5.14-9.26,0-14.56,5.84-14.56,12.1,0,5.29,2.92,8.64,13.35,10.59l4.51.85c2.92.55,4.83,1.83,4.83,4.28,0,2.06-2.77,4.67-7.36,4.67-4.12,0-8.79-2.37-11.63-5.45L78.7,66.38c5.06,4.28,10.43,6.5,16.69,6.5,11.25,0,15.68-7,15.68-12.49S107.84,51.71,101.27,50.5Z" fill="#242830"/>
  <path d="M134.69,33.81c-13,0-20.43,9.73-20.43,19.5s7.51,19.49,20.43,19.49,20.43-9.73,20.43-19.49S147.61,33.81,134.69,33.81Zm0,31.56a12,12,0,1,1,12-12A11.81,11.81,0,0,1,134.69,65.37Z" fill="#242830"/>
  <path d="M182.55,23.7a4,4,0,1,0,4,4A4,4,0,0,0,182.55,23.7Z" fill="#242830"/>
  <rect x="178.58" y="39.65" width="7.94" height="33.19" fill="#242830"/>
  <path d="M223.24,37.67a20.86,20.86,0,0,0-12.49-3.82c-12.91,0-20.42,9.73-20.42,19.49s7.51,19.5,20.42,19.5A21.13,21.13,0,0,0,223.24,69v3.82h7.94V23.7h-7.94Zm-12.49,27.7a12,12,0,1,1,12-12A11.81,11.81,0,0,1,210.75,65.37Z" fill="#242830"/>
  <path d="M261,55.56c0,5.45-4,9.34-8.95,9.34s-8.95-3.89-8.95-9.34V33.89h-8V56.26c0,10.43,8.13,16.62,16.92,16.62S269,66.65,269,56.26V33.89H261Z" fill="#242830"/>
  <path d="M293,50.62l-8-1.52c-3.08-.5-4.83-1.67-4.83-3.89,0-3,3.39-4.67,6.81-4.67,2.61,0,6.07.82,10,4.13l4.55-5.6c-5.05-3.62-9.57-5.14-14.7-5.14-9.26,0-14.55,5.84-14.55,12.1,0,5.25,2.91,8.64,13.3,10.54l4.52.86c2.91.54,4.82,1.83,4.82,4.28,0,2.06-2.76,4.67-7.35,4.67-4.13,0-8.8-2.37-11.64-5.45l-5.44,5.57C275.5,70.78,280.86,73,287.13,73c11.24,0,15.68-7,15.68-12.49S299.58,51.83,293,50.62Z" fill="#242830"/>
  <path d="M167.06,57.66V31.91c0-7.75-3.81-10.55-12-14.48l-3.5,6.27,4.28,2.45c2.21,1.28,3.11,2.72,3.23,6.46V58.4c0,7.75,3.81,10.55,12,14.48l3.5-6.27-4.28-2.49C168.07,62.84,167.18,61.4,167.06,57.66Z" fill="#242830"/>
  <path d="M17.39,87.79H61.27V17.29H17.39Zm6.28-64.22H54.89V81.41H23.67Z" fill="#242830"/>
  <path d="M42.41,62.3V42.43c0-6-2.94-8.13-9.27-11.16l-2.7,4.83L33.74,38c1.71,1,2.4,2.1,2.49,5v19.9c0,6,2.94,8.13,9.27,11.16l2.71-4.83L44.9,67.28C43.19,66.29,42.5,65.18,42.41,62.3Z" fill="#242830"/>
</svg>