<svg xmlns="http://www.w3.org/2000/svg" viewBox="0 0 338.5 114.01">
  <title>Solidus Type</title>
  <path d="M50.07,64.06,39.34,62c-4.09-.68-6.42-2.23-6.42-5.18,0-4,4.5-6.22,9.06-6.22,3.48,0,8.09,1.09,13.27,5.49l6.06-7.46c-6.73-4.82-12.74-6.84-19.58-6.84-12.34,0-19.39,7.77-19.39,16.11,0,7,3.89,11.51,17.78,14.1l6,1.14c3.89.73,6.43,2.44,6.43,5.7,0,2.75-3.68,6.22-9.8,6.22-5.49,0-11.71-3.16-15.49-7.26L20,85.2c6.74,5.7,13.89,8.66,22.23,8.66,15,0,20.89-9.38,20.89-16.64S58.83,65.67,50.07,64.06Z" fill="#24282f"/>
  <path d="M94.58,41.83c-17.25,0-27.2,13-27.2,26s10,26,27.2,26,27.21-13,27.21-26S111.79,41.83,94.58,41.83Zm0,42a16,16,0,1,1,16-16A15.73,15.73,0,0,1,94.58,83.85Z" fill="#24282f"/>
  <circle cx="158.32" cy="33.69" r="5.34" transform="translate(66.61 167.07) rotate(-67.5)" fill="#24282f"/>
  <rect x="153.03" y="49.6" width="10.57" height="44.2" fill="#24282f"/>
  <path d="M212.52,47a27.83,27.83,0,0,0-16.63-5.08c-17.2,0-27.21,13-27.21,26s10,26,27.21,26a28.17,28.17,0,0,0,16.63-5.07V93.8H223.1V28.36H212.52ZM195.89,83.85a16,16,0,1,1,16-16A15.73,15.73,0,0,1,195.89,83.85Z" fill="#24282f"/>
  <path d="M262.84,70.8c0,7.25-5.28,12.43-11.92,12.43S239,78.05,239,70.8V41.93H228.33v29.8c0,13.89,10.83,22.13,22.54,22.13s22.54-8.3,22.54-22.13V41.93H262.84Z" fill="#24282f"/>
  <path d="M305.44,64.22l-10.68-2c-4.09-.67-6.42-2.22-6.42-5.18,0-4,4.5-6.22,9.06-6.22,3.48,0,8.09,1.09,13.27,5.5l6.06-7.47C310,44,304,42,297.15,42c-12.34,0-19.38,7.78-19.38,16.12,0,7,3.88,11.5,17.72,14l6,1.14c3.89.73,6.42,2.44,6.42,5.7,0,2.75-3.67,6.22-9.79,6.22-5.49,0-11.71-3.16-15.49-7.25l-7.26,7.41c6.74,5.7,13.89,8.65,22.23,8.65,15,0,20.89-9.38,20.89-16.63S314.19,65.82,305.44,64.22Z" fill="#24282f"/>
  <path d="M137.7,73.59V39.29c0-10.31-5.08-14-16-19.28L117,28.36l5.7,3.26c3,1.71,4.15,3.63,4.3,8.6V74.58c0,10.31,5.08,14,16,19.28l4.67-8.35L142,82.2C139,80.49,137.85,78.57,137.7,73.59Z" fill="#24282f"/>
</svg>