<svg xmlns="http://www.w3.org/2000/svg" viewBox="0 0 320 80">
  <title>Solidus Type</title>
  <path d="M32.22,47.56l-11.5-2.17c-4.39-.72-6.89-2.39-6.89-5.56,0-4.27,4.84-6.66,9.73-6.66,3.72,0,8.66,1.16,14.22,5.89l6.5-8c-7.22-5.17-13.67-7.34-21-7.34C10.06,23.72,2.5,32.06,2.5,41c0,7.56,4.17,12.33,19.06,15.11L28,57.33c4.17.78,6.89,2.61,6.89,6.11,0,3-3.95,6.67-10.5,6.67-5.89,0-12.56-3.39-16.61-7.78L0,70.22c7.22,6.11,14.89,9.28,23.83,9.28,16.06,0,22.39-10.06,22.39-17.83S41.61,49.28,32.22,47.56Z" fill="#fff"/>
  <path d="M79.94,23.72c-18.5,0-29.16,13.89-29.16,27.84S61.5,79.39,79.94,79.39s29.17-13.89,29.17-27.83S98.39,23.72,79.94,23.72Zm0,45.06A16.87,16.87,0,0,1,62.78,51.61a17.17,17.17,0,1,1,34.33,0A16.87,16.87,0,0,1,79.94,68.78Z" fill="#fff"/>
  <path d="M148.28,9.28A5.72,5.72,0,1,0,154,15,5.71,5.71,0,0,0,148.28,9.28Z" fill="#fff"/>
  <rect x="142.61" y="32.06" width="11.33" height="47.39" fill="#fff"/>
  <path d="M206.39,29.22a29.84,29.84,0,0,0-17.83-5.44c-18.45,0-29.17,13.89-29.17,27.83s10.72,27.83,29.17,27.83A30.26,30.26,0,0,0,206.39,74v5.44h11.33V9.28H206.39ZM188.56,68.78a16.87,16.87,0,0,1-17.17-17.17,17.17,17.17,0,1,1,34.33,0A16.87,16.87,0,0,1,188.56,68.78Z" fill="#fff"/>
  <path d="M260.33,54.78c0,7.78-5.66,13.33-12.77,13.33s-12.78-5.55-12.78-13.33V23.83H223.33v32c0,14.89,11.61,23.72,24.17,23.72s24.17-8.89,24.17-23.72V23.83H260.33Z" fill="#fff"/>
  <path d="M306,47.72l-11.44-2.16c-4.39-.73-6.89-2.39-6.89-5.56,0-4.28,4.83-6.67,9.72-6.67,3.72,0,8.67,1.17,14.22,5.89l6.5-8c-7.22-5.16-13.67-7.33-21-7.33-13.22,0-20.78,8.33-20.78,17.28,0,7.5,4.17,12.33,19,15l6.45,1.22c4.16.78,6.89,2.62,6.89,6.12,0,2.94-3.95,6.66-10.5,6.66-5.89,0-12.56-3.39-16.61-7.78l-7.78,8c7.22,6.11,14.89,9.28,23.83,9.28,16.06,0,22.39-10.06,22.39-17.84S315.39,49.44,306,47.72Z" fill="#fff"/>
  <path d="M126.17,57.78V21c0-11.06-5.45-15.06-17.17-20.67l-5,9,6.11,3.5c3.17,1.83,4.45,3.89,4.61,9.22V58.83c0,11.06,5.45,15.06,17.17,20.67l5-8.94L130.78,67C127.61,65.17,126.33,63.11,126.17,57.78Z" fill="#fff"/>
</svg>